<svg width="393" height="387" viewBox="0 0 393 387" fill="none" xmlns="http://www.w3.org/2000/svg">
<g clip-path="url(#clip0_312_212)">
<path d="M168.65 191.51C177.64 188.59 187.32 188.59 196.32 191.51L199.88 180.55C188.58 176.88 176.41 176.88 165.1 180.55L168.65 191.51ZM151.91 202.29C156.71 197.49 162.5 193.78 168.86 191.43L164.87 180.62C156.94 183.55 149.74 188.16 143.76 194.14L151.91 202.29ZM141.05 219.25C143.4 212.88 147.11 207.1 151.91 202.29L143.76 194.14C137.78 200.12 133.17 207.32 130.24 215.25L141.05 219.25ZM99.27 157.38L130.49 219.82L140.79 214.67L109.57 152.23L99.27 157.38ZM10.76 160.57H104.42V149.05H10.76V160.57ZM78 245.28L15.56 151.62L5.97 158L68.41 251.66L78 245.28ZM112.85 242.71H73.2V254.23H112.85V242.71ZM166.87 186.03L165.09 180.55L164.98 180.59L164.87 180.63L166.87 186.03ZM135.65 217.25L130.5 219.83L136.45 231.73L141.06 219.25L135.65 217.25ZM104.43 154.81L109.58 152.23L107.99 149.05H104.43V154.81ZM10.76 154.81V149.05H0L5.97 158L10.76 154.81ZM73.2 248.47L68.41 251.67L70.12 254.24H73.2V248.47Z" fill="url(#paint0_linear_312_212)"/>
<path d="M169.09 162.88C179.4 167.62 187.43 176.22 191.45 186.83L202.22 182.74C197.12 169.31 186.95 158.42 173.9 152.41L169.09 162.88ZM136.35 161.48C147.02 157.63 158.78 158.14 169.09 162.88L173.9 152.41C160.85 146.41 145.96 145.77 132.44 150.64L136.35 161.48ZM158.21 91.19L129.17 153.63L139.62 158.49L168.66 96.05L158.21 91.19ZM99.9503 24.5L158.96 97.24L167.91 89.98L108.9 17.24L99.9503 24.5ZM76.5203 129.98L109.93 22.58L98.9304 19.16L65.5203 126.56L76.5203 129.98ZM95.1703 149L75.5004 124.65L66.5404 131.89L86.2104 156.24L95.1703 149ZM134.4 156.06L129.18 153.63L123.35 166.16L136.35 161.48L134.4 156.06ZM163.43 93.61L168.65 96.04L170.17 92.78L167.9 89.99L163.43 93.61ZM104.42 20.87L108.89 17.24L102.11 8.88L98.9104 19.15L104.42 20.87ZM71.0203 128.27L65.5203 126.56L64.6104 129.5L66.5404 131.89L71.0203 128.27Z" fill="url(#paint1_linear_312_212)"/>
<path d="M198.92 156.09C200.02 165.7 197.98 175.4 193.11 183.76L203.06 189.56C209.18 179.06 211.74 166.86 210.36 154.78L198.92 156.09ZM191.77 137.57C195.47 143.24 197.92 149.63 198.95 156.32L210.33 154.56C209.04 146.26 206.01 138.32 201.41 131.28L191.77 137.57ZM177.5 123.45C183.2 127.09 188.07 131.9 191.77 137.57L201.42 131.27C196.83 124.23 190.79 118.25 183.7 113.73L177.5 123.45ZM246.57 95.23L179.13 113.03L182.07 124.17L249.51 106.37L246.57 95.23ZM261.76 8.13L242.4 99.6L253.67 101.98L273.03 10.5L261.76 8.13ZM164.93 56.19L269.52 14.67L265.27 3.96L160.68 45.49L164.93 56.19ZM161.26 86.36L168.44 52.02L157.16 49.66L149.98 84L161.26 86.36ZM204.64 155.43L210.36 154.78L210.35 154.67L210.33 154.56L204.64 155.43ZM180.6 118.59L179.13 113.02L166.42 116.37L177.5 123.44L180.6 118.59ZM248.04 100.8L249.51 106.37L252.94 105.46L253.67 101.99L248.04 100.8ZM267.39 9.32L273.03 10.51L275.25 0L265.27 3.96L267.39 9.32ZM162.8 50.84L160.67 45.49L157.79 46.63L157.16 49.66L162.8 50.84Z" fill="url(#paint2_linear_312_212)"/>
<path d="M222.75 167.9C216.07 174.55 207.46 178.9 198.15 180.34L199.91 191.73C211.63 189.92 222.48 184.44 230.88 176.07L222.75 167.9ZM232.7 150.59C230.58 157.08 227.12 163.06 222.54 168.12L231.08 175.85C236.75 169.58 241.03 162.19 243.65 154.16L232.7 150.59ZM234.82 130.44C235.54 137.23 234.81 144.1 232.7 150.59L243.65 154.16C246.27 146.13 247.16 137.63 246.28 129.23L234.82 130.44ZM300.17 166.72L243.97 125.2L237.12 134.47L293.32 175.99L300.17 166.72ZM377.48 123.46L294.12 166.23L299.38 176.48L382.74 133.71L377.48 123.46ZM278.95 78.66L377.3 133.61L382.92 123.55L284.57 68.6L278.95 78.66ZM253.12 94.4L284.34 78.79L279.19 68.49L247.97 84.1L253.12 94.4ZM226.81 171.98L230.87 176.06L230.98 175.95L231.08 175.84L226.81 171.98ZM240.55 129.83L243.97 125.2L233.44 117.42L234.81 130.44L240.55 129.83ZM296.75 171.36L293.33 175.99L296.2 178.11L299.38 176.48L296.75 171.36ZM380.11 128.58L382.74 133.7L392.31 128.79L382.92 123.55L380.11 128.58ZM281.76 73.63L284.57 68.6L281.91 67.11L279.18 68.47L281.76 73.63Z" fill="url(#paint3_linear_312_212)"/>
<path d="M215.25 190.66C209.88 188.7 204.95 185.68 200.75 181.8L192.93 190.26C198.25 195.18 204.49 198.99 211.29 201.48L215.25 190.66ZM232.04 193.24C226.33 193.5 220.62 192.62 215.25 190.65L211.29 201.47C218.09 203.96 225.32 205.07 232.56 204.75L232.04 193.24ZM248.53 189.16C243.36 191.6 237.75 192.98 232.03 193.24L232.55 204.75C239.79 204.43 246.89 202.67 253.44 199.58L248.53 189.16ZM262.19 179.04C258.35 183.28 253.71 186.72 248.54 189.16L253.45 199.58C260 196.49 265.88 192.14 270.74 186.77L262.19 179.04ZM275.64 252.25L272.21 182.63L260.7 183.2L264.13 252.82L275.64 252.25ZM357.78 285.36L272.23 247.27L267.54 257.79L353.09 295.88L357.78 285.36ZM330.71 180.76L349.76 291.6L361.11 289.65L342.06 178.81L330.71 180.76ZM302.72 170.33L333.94 185L338.84 174.57L307.62 159.9L302.72 170.33ZM266.46 182.91L272.21 182.63L271.52 168.72L262.18 179.05L266.46 182.91ZM269.89 252.53L264.14 252.81L264.31 256.35L267.55 257.79L269.89 252.53ZM355.44 290.62L353.1 295.88L362.95 300.26L361.12 289.64L355.44 290.62ZM336.39 179.79L342.07 178.81L341.56 175.85L338.84 174.57L336.39 179.79Z" fill="url(#paint4_linear_312_212)"/>
<path d="M211.01 213.13C205.61 204.99 203.09 195.27 203.83 185.53L192.34 184.65C191.4 196.95 194.59 209.21 201.4 219.49L211.01 213.13ZM225.86 226.45C219.95 223.09 214.85 218.49 210.89 212.96L201.52 219.67C206.45 226.55 212.8 232.28 220.16 236.46L225.86 226.45ZM245.1 232.43C238.33 231.85 231.76 229.81 225.86 226.45L220.16 236.46C227.51 240.65 235.69 243.19 244.12 243.91L245.1 232.43ZM195.98 289L248.43 242.48L240.79 233.86L188.34 280.38L195.98 289ZM222.07 373.42L197.72 283.19L186.6 286.19L210.95 376.42L222.07 373.42ZM286.48 286.51L212.17 371.12L220.83 378.72L295.14 294.11L286.48 286.51ZM276.2 258.08L285.25 291.8L296.38 288.81L287.33 255.09L276.2 258.08ZM206.2 216.31L201.4 219.49L201.46 219.58L201.52 219.66L206.2 216.31ZM244.61 238.17L248.43 242.48L258.47 233.58L245.1 232.44L244.61 238.17ZM192.15 284.69L188.33 280.38L185.66 282.75L186.59 286.19L192.15 284.69ZM216.51 374.92L210.95 376.42L213.75 386.79L220.84 378.72L216.51 374.92ZM290.81 290.31L295.14 294.11L297.17 291.79L296.37 288.81L290.81 290.31Z" fill="url(#paint5_linear_312_212)"/>
<path d="M185.12 213.16C188.15 204.16 193.87 196.31 201.51 190.66L194.66 181.4C185.13 188.45 177.99 198.25 174.2 209.48L185.12 213.16ZM184.16 233.03C183.06 226.3 183.42 219.42 185.22 212.85L174.11 209.8C171.87 217.97 171.42 226.53 172.79 234.9L184.16 233.03ZM191.62 251.81C187.81 246.16 185.26 239.75 184.16 233.03L172.79 234.9C174.16 243.26 177.33 251.23 182.07 258.26L191.62 251.81ZM116.89 249.16L185.89 260.71L187.79 249.35L118.79 237.8L116.89 249.16ZM67.5599 322.72L122.51 246.85L113.18 240.09L58.2299 315.96L67.5599 322.72ZM175.52 317.96L63.1299 313.59L62.6799 325.1L175.07 329.47L175.52 317.96ZM190.62 292.85L170.64 320.32L179.96 327.1L199.94 299.63L190.62 292.85ZM179.66 211.32L174.2 209.48L174.15 209.64L174.11 209.8L179.66 211.32ZM186.84 255.03L185.89 260.71L199.11 262.92L191.61 251.8L186.84 255.03ZM117.85 243.48L118.8 237.8L115.28 237.21L113.19 240.1L117.85 243.48ZM62.8999 319.35L58.2299 315.97L51.9199 324.69L62.6699 325.11L62.8999 319.35ZM175.29 323.72L175.07 329.48L178.14 329.6L179.95 327.11L175.29 323.72Z" fill="url(#paint6_linear_312_212)"/>
</g>
<defs>
<linearGradient id="paint0_linear_312_212" x1="0" y1="201.64" x2="199.866" y2="201.64" gradientUnits="userSpaceOnUse">
<stop stop-color="#0BE2ED"/>
<stop offset="0.0114" stop-color="#10DFED"/>
<stop offset="0.1445" stop-color="#41BCE9"/>
<stop offset="0.281" stop-color="#6B9FE5"/>
<stop offset="0.4188" stop-color="#8D87E2"/>
<stop offset="0.5581" stop-color="#A874E0"/>
<stop offset="0.6998" stop-color="#BB67DE"/>
<stop offset="0.8452" stop-color="#C65FDD"/>
<stop offset="1" stop-color="#CA5CDD"/>
</linearGradient>
<linearGradient id="paint1_linear_312_212" x1="64.6033" y1="97.8551" x2="202.223" y2="97.8551" gradientUnits="userSpaceOnUse">
<stop stop-color="#0BE2ED"/>
<stop offset="0.0114" stop-color="#10DFED"/>
<stop offset="0.1445" stop-color="#41BCE9"/>
<stop offset="0.281" stop-color="#6B9FE5"/>
<stop offset="0.4188" stop-color="#8D87E2"/>
<stop offset="0.5581" stop-color="#A874E0"/>
<stop offset="0.6998" stop-color="#BB67DE"/>
<stop offset="0.8452" stop-color="#C65FDD"/>
<stop offset="1" stop-color="#CA5CDD"/>
</linearGradient>
<linearGradient id="paint2_linear_312_212" x1="149.986" y1="94.778" x2="275.254" y2="94.778" gradientUnits="userSpaceOnUse">
<stop stop-color="#0BE2ED"/>
<stop offset="0.0114" stop-color="#10DFED"/>
<stop offset="0.1445" stop-color="#41BCE9"/>
<stop offset="0.281" stop-color="#6B9FE5"/>
<stop offset="0.4188" stop-color="#8D87E2"/>
<stop offset="0.5581" stop-color="#A874E0"/>
<stop offset="0.6998" stop-color="#BB67DE"/>
<stop offset="0.8452" stop-color="#C65FDD"/>
<stop offset="1" stop-color="#CA5CDD"/>
</linearGradient>
<linearGradient id="paint3_linear_312_212" x1="198.146" y1="129.421" x2="392.302" y2="129.421" gradientUnits="userSpaceOnUse">
<stop stop-color="#0BE2ED"/>
<stop offset="0.0114" stop-color="#10DFED"/>
<stop offset="0.1445" stop-color="#41BCE9"/>
<stop offset="0.281" stop-color="#6B9FE5"/>
<stop offset="0.4188" stop-color="#8D87E2"/>
<stop offset="0.5581" stop-color="#A874E0"/>
<stop offset="0.6998" stop-color="#BB67DE"/>
<stop offset="0.8452" stop-color="#C65FDD"/>
<stop offset="1" stop-color="#CA5CDD"/>
</linearGradient>
<linearGradient id="paint4_linear_312_212" x1="192.925" y1="230.083" x2="362.939" y2="230.083" gradientUnits="userSpaceOnUse">
<stop stop-color="#0BE2ED"/>
<stop offset="0.0114" stop-color="#10DFED"/>
<stop offset="0.1445" stop-color="#41BCE9"/>
<stop offset="0.281" stop-color="#6B9FE5"/>
<stop offset="0.4188" stop-color="#8D87E2"/>
<stop offset="0.5581" stop-color="#A874E0"/>
<stop offset="0.6998" stop-color="#BB67DE"/>
<stop offset="0.8452" stop-color="#C65FDD"/>
<stop offset="1" stop-color="#CA5CDD"/>
</linearGradient>
<linearGradient id="paint5_linear_312_212" x1="185.664" y1="285.722" x2="297.176" y2="285.722" gradientUnits="userSpaceOnUse">
<stop stop-color="#0BE2ED"/>
<stop offset="0.0114" stop-color="#10DFED"/>
<stop offset="0.1445" stop-color="#41BCE9"/>
<stop offset="0.281" stop-color="#6B9FE5"/>
<stop offset="0.4188" stop-color="#8D87E2"/>
<stop offset="0.5581" stop-color="#A874E0"/>
<stop offset="0.6998" stop-color="#BB67DE"/>
<stop offset="0.8452" stop-color="#C65FDD"/>
<stop offset="1" stop-color="#CA5CDD"/>
</linearGradient>
<linearGradient id="paint6_linear_312_212" x1="51.9194" y1="255.494" x2="201.508" y2="255.494" gradientUnits="userSpaceOnUse">
<stop stop-color="#0BE2ED"/>
<stop offset="0.0114" stop-color="#10DFED"/>
<stop offset="0.1445" stop-color="#41BCE9"/>
<stop offset="0.281" stop-color="#6B9FE5"/>
<stop offset="0.4188" stop-color="#8D87E2"/>
<stop offset="0.5581" stop-color="#A874E0"/>
<stop offset="0.6998" stop-color="#BB67DE"/>
<stop offset="0.8452" stop-color="#C65FDD"/>
<stop offset="1" stop-color="#CA5CDD"/>
</linearGradient>
<clipPath id="clip0_312_212">
<rect width="392.3" height="386.79" fill="white"/>
</clipPath>
</defs>
</svg>
