<svg xmlns="http://www.w3.org/2000/svg" width="393" height="387" fill="none"><g clip-path="url(#a)"><path fill="url(#b)" d="M168.65 191.51a44.795 44.795 0 0 1 27.67 0l3.56-10.96a56.31 56.31 0 0 0-34.78 0l3.55 10.96Zm-16.74 10.78c4.8-4.8 10.59-8.51 16.95-10.86l-3.99-10.81a58.543 58.543 0 0 0-21.11 13.52l8.15 8.15Zm-10.86 16.96a47.091 47.091 0 0 1 10.86-16.96l-8.15-8.15a58.543 58.543 0 0 0-13.52 21.11l10.81 4Zm-41.78-61.87 31.22 62.44 10.3-5.15-31.22-62.44-10.3 5.15Zm-88.51 3.19h93.66v-11.52H10.76v11.52ZM78 245.28l-62.44-93.66L5.97 158l62.44 93.66 9.59-6.38Zm34.85-2.57H73.2v11.52h39.65v-11.52Zm54.02-56.68-1.78-5.48-.11.04-.11.04 2 5.4Zm-31.22 31.22-5.15 2.58 5.95 11.9 4.61-12.48-5.41-2Zm-31.22-62.44 5.15-2.58-1.59-3.18h-3.56v5.76Zm-93.67 0v-5.76H0L5.97 158l4.79-3.19Zm62.44 93.66-4.79 3.2 1.71 2.57h3.08v-5.77Z"/><path fill="url(#c)" d="M169.09 162.88a43.207 43.207 0 0 1 22.36 23.95l10.77-4.09a54.82 54.82 0 0 0-28.32-30.33l-4.81 10.47Zm-32.74-1.4a43.247 43.247 0 0 1 32.74 1.4l4.81-10.47c-13.05-6-27.94-6.64-41.46-1.77l3.91 10.84Zm21.86-70.29-29.04 62.44 10.45 4.86 29.04-62.44-10.45-4.86ZM99.95 24.5l59.01 72.74 8.95-7.26-59.01-72.74-8.95 7.26ZM76.52 129.98l33.41-107.4-11-3.42-33.41 107.4 11 3.42ZM95.17 149 75.5 124.65l-8.96 7.24 19.67 24.35 8.96-7.24Zm39.23 7.06-5.22-2.43-5.83 12.53 13-4.68-1.95-5.42Zm29.03-62.45 5.22 2.43 1.52-3.26-2.27-2.79-4.47 3.62Zm-59.01-72.74 4.47-3.63-6.78-8.36-3.2 10.27 5.51 1.72Zm-33.4 107.4-5.5-1.71-.91 2.94 1.93 2.39 4.48-3.62Z"/><path fill="url(#d)" d="M198.92 156.09a44.83 44.83 0 0 1-5.81 27.67l9.95 5.8c6.12-10.5 8.68-22.7 7.3-34.78l-11.44 1.31Zm-7.15-18.52c3.7 5.67 6.15 12.06 7.18 18.75l11.38-1.76a59.16 59.16 0 0 0-8.92-23.28l-9.64 6.29Zm-14.27-14.12c5.7 3.64 10.57 8.45 14.27 14.12l9.65-6.3a59.041 59.041 0 0 0-17.72-17.54l-6.2 9.72Zm69.07-28.22-67.44 17.8 2.94 11.14 67.44-17.8-2.94-11.14Zm15.19-87.1L242.4 99.6l11.27 2.38 19.36-91.48-11.27-2.37Zm-96.83 48.06 104.59-41.52-4.25-10.71-104.59 41.53 4.25 10.7Zm-3.67 30.17 7.18-34.34-11.28-2.36L149.98 84l11.28 2.36Zm43.38 69.07 5.72-.65-.01-.11-.02-.11-5.69.87Zm-24.04-36.84-1.47-5.57-12.71 3.35 11.08 7.07 3.1-4.85Zm67.44-17.79 1.47 5.57 3.43-.91.73-3.47-5.63-1.19Zm19.35-91.48 5.64 1.19L275.25 0l-9.98 3.96 2.12 5.36ZM162.8 50.84l-2.13-5.35-2.88 1.14-.63 3.03 5.64 1.18Z"/><path fill="url(#e)" d="M222.75 167.9c-6.68 6.65-15.29 11-24.6 12.44l1.76 11.39a55.982 55.982 0 0 0 30.97-15.66l-8.13-8.17Zm9.95-17.31a48.625 48.625 0 0 1-10.16 17.53l8.54 7.73a60.15 60.15 0 0 0 12.57-21.69l-10.95-3.57Zm2.12-20.15c.72 6.79-.01 13.66-2.12 20.15l10.95 3.57a60.178 60.178 0 0 0 2.63-24.93l-11.46 1.21Zm65.35 36.28-56.2-41.52-6.85 9.27 56.2 41.52 6.85-9.27Zm77.31-43.26-83.36 42.77 5.26 10.25 83.36-42.77-5.26-10.25Zm-98.53-44.8 98.35 54.95 5.62-10.06-98.35-54.95-5.62 10.06ZM253.12 94.4l31.22-15.61-5.15-10.3-31.22 15.61 5.15 10.3Zm-26.31 77.58 4.06 4.08.11-.11.1-.11-4.27-3.86Zm13.74-42.15 3.42-4.63-10.53-7.78 1.37 13.02 5.74-.61Zm56.2 41.53-3.42 4.63 2.87 2.12 3.18-1.63-2.63-5.12Zm83.36-42.78 2.63 5.12 9.57-4.91-9.39-5.24-2.81 5.03Zm-98.35-54.95 2.81-5.03-2.66-1.49-2.73 1.36 2.58 5.16Z"/><path fill="url(#f)" d="M215.25 190.66a43.23 43.23 0 0 1-14.5-8.86l-7.82 8.46a54.774 54.774 0 0 0 18.36 11.22l3.96-10.82Zm16.79 2.58c-5.71.26-11.42-.62-16.79-2.59l-3.96 10.82c6.8 2.49 14.03 3.6 21.27 3.28l-.52-11.51Zm16.49-4.08a43.254 43.254 0 0 1-16.5 4.08l.52 11.51c7.24-.32 14.34-2.08 20.89-5.17l-4.91-10.42Zm13.66-10.12a43.424 43.424 0 0 1-13.65 10.12l4.91 10.42a54.917 54.917 0 0 0 17.29-12.81l-8.55-7.73Zm13.45 73.21-3.43-69.62-11.51.57 3.43 69.62 11.51-.57Zm82.14 33.11-85.55-38.09-4.69 10.52 85.55 38.09 4.69-10.52Zm-27.07-104.6 19.05 110.84 11.35-1.95-19.05-110.84-11.35 1.95Zm-27.99-10.43L333.94 185l4.9-10.43-31.22-14.67-4.9 10.43Zm-36.26 12.58 5.75-.28-.69-13.91-9.34 10.33 4.28 3.86Zm3.43 69.62-5.75.28.17 3.54 3.24 1.44 2.34-5.26Zm85.55 38.09-2.34 5.26 9.85 4.38-1.83-10.62-5.68.98Zm-19.05-110.83 5.68-.98-.51-2.96-2.72-1.28-2.45 5.22Z"/><path fill="url(#g)" d="M211.01 213.13a43.917 43.917 0 0 1-7.18-27.6l-11.49-.88a55.438 55.438 0 0 0 9.06 34.84l9.61-6.36Zm14.85 13.32a46.944 46.944 0 0 1-14.97-13.49l-9.37 6.71a58.434 58.434 0 0 0 18.64 16.79l5.7-10.01Zm19.24 5.98a46.998 46.998 0 0 1-19.24-5.98l-5.7 10.01a58.428 58.428 0 0 0 23.96 7.45l.98-11.48ZM195.98 289l52.45-46.52-7.64-8.62-52.45 46.52 7.64 8.62Zm26.09 84.42-24.35-90.23-11.12 3 24.35 90.23 11.12-3Zm64.41-86.91-74.31 84.61 8.66 7.6 74.31-84.61-8.66-7.6Zm-10.28-28.43 9.05 33.72 11.13-2.99-9.05-33.72-11.13 2.99Zm-70-41.77-4.8 3.18.06.09.06.08 4.68-3.35Zm38.41 21.86 3.82 4.31 10.04-8.9-13.37-1.14-.49 5.73Zm-52.46 46.52-3.82-4.31-2.67 2.37.93 3.44 5.56-1.5Zm24.36 90.23-5.56 1.5 2.8 10.37 7.09-8.07-4.33-3.8Zm74.3-84.61 4.33 3.8 2.03-2.32-.8-2.98-5.56 1.5Z"/><path fill="url(#h)" d="M185.12 213.16c3.03-9 8.75-16.85 16.39-22.5l-6.85-9.26a57.997 57.997 0 0 0-20.46 28.08l10.92 3.68Zm-.96 19.87a47.41 47.41 0 0 1 1.06-20.18l-11.11-3.05a58.922 58.922 0 0 0-1.32 25.1l11.37-1.87Zm7.46 18.78a47.263 47.263 0 0 1-7.46-18.78l-11.37 1.87a58.81 58.81 0 0 0 9.28 23.36l9.55-6.45Zm-74.73-2.65 69 11.55 1.9-11.36-69-11.55-1.9 11.36Zm-49.33 73.56 54.95-75.87-9.33-6.76-54.95 75.87 9.33 6.76Zm107.96-4.76-112.39-4.37-.45 11.51 112.39 4.37.45-11.51Zm15.1-25.11-19.98 27.47 9.32 6.78 19.98-27.47-9.32-6.78Zm-10.96-81.53-5.46-1.84-.05.16-.04.16 5.55 1.52Zm7.18 43.71-.95 5.68 13.22 2.21-7.5-11.12-4.77 3.23Zm-68.99-11.55.95-5.68-3.52-.59-2.09 2.89 4.66 3.38ZM62.9 319.35l-4.67-3.38-6.31 8.72 10.75.42.23-5.76Zm112.39 4.37-.22 5.76 3.07.12 1.81-2.49-4.66-3.39Z"/></g><defs><linearGradient id="b" x1="0" x2="199.866" y1="201.64" y2="201.64" gradientUnits="userSpaceOnUse"><stop stop-color="#0BE2ED"/><stop offset=".011" stop-color="#10DFED"/><stop offset=".144" stop-color="#41BCE9"/><stop offset=".281" stop-color="#6B9FE5"/><stop offset=".419" stop-color="#8D87E2"/><stop offset=".558" stop-color="#A874E0"/><stop offset=".7" stop-color="#BB67DE"/><stop offset=".845" stop-color="#C65FDD"/><stop offset="1" stop-color="#CA5CDD"/></linearGradient><linearGradient id="c" x1="64.603" x2="202.223" y1="97.855" y2="97.855" gradientUnits="userSpaceOnUse"><stop stop-color="#0BE2ED"/><stop offset=".011" stop-color="#10DFED"/><stop offset=".144" stop-color="#41BCE9"/><stop offset=".281" stop-color="#6B9FE5"/><stop offset=".419" stop-color="#8D87E2"/><stop offset=".558" stop-color="#A874E0"/><stop offset=".7" stop-color="#BB67DE"/><stop offset=".845" stop-color="#C65FDD"/><stop offset="1" stop-color="#CA5CDD"/></linearGradient><linearGradient id="d" x1="149.986" x2="275.254" y1="94.778" y2="94.778" gradientUnits="userSpaceOnUse"><stop stop-color="#0BE2ED"/><stop offset=".011" stop-color="#10DFED"/><stop offset=".144" stop-color="#41BCE9"/><stop offset=".281" stop-color="#6B9FE5"/><stop offset=".419" stop-color="#8D87E2"/><stop offset=".558" stop-color="#A874E0"/><stop offset=".7" stop-color="#BB67DE"/><stop offset=".845" stop-color="#C65FDD"/><stop offset="1" stop-color="#CA5CDD"/></linearGradient><linearGradient id="e" x1="198.146" x2="392.302" y1="129.421" y2="129.421" gradientUnits="userSpaceOnUse"><stop stop-color="#0BE2ED"/><stop offset=".011" stop-color="#10DFED"/><stop offset=".144" stop-color="#41BCE9"/><stop offset=".281" stop-color="#6B9FE5"/><stop offset=".419" stop-color="#8D87E2"/><stop offset=".558" stop-color="#A874E0"/><stop offset=".7" stop-color="#BB67DE"/><stop offset=".845" stop-color="#C65FDD"/><stop offset="1" stop-color="#CA5CDD"/></linearGradient><linearGradient id="f" x1="192.925" x2="362.939" y1="230.083" y2="230.083" gradientUnits="userSpaceOnUse"><stop stop-color="#0BE2ED"/><stop offset=".011" stop-color="#10DFED"/><stop offset=".144" stop-color="#41BCE9"/><stop offset=".281" stop-color="#6B9FE5"/><stop offset=".419" stop-color="#8D87E2"/><stop offset=".558" stop-color="#A874E0"/><stop offset=".7" stop-color="#BB67DE"/><stop offset=".845" stop-color="#C65FDD"/><stop offset="1" stop-color="#CA5CDD"/></linearGradient><linearGradient id="g" x1="185.664" x2="297.176" y1="285.722" y2="285.722" gradientUnits="userSpaceOnUse"><stop stop-color="#0BE2ED"/><stop offset=".011" stop-color="#10DFED"/><stop offset=".144" stop-color="#41BCE9"/><stop offset=".281" stop-color="#6B9FE5"/><stop offset=".419" stop-color="#8D87E2"/><stop offset=".558" stop-color="#A874E0"/><stop offset=".7" stop-color="#BB67DE"/><stop offset=".845" stop-color="#C65FDD"/><stop offset="1" stop-color="#CA5CDD"/></linearGradient><linearGradient id="h" x1="51.919" x2="201.508" y1="255.494" y2="255.494" gradientUnits="userSpaceOnUse"><stop stop-color="#0BE2ED"/><stop offset=".011" stop-color="#10DFED"/><stop offset=".144" stop-color="#41BCE9"/><stop offset=".281" stop-color="#6B9FE5"/><stop offset=".419" stop-color="#8D87E2"/><stop offset=".558" stop-color="#A874E0"/><stop offset=".7" stop-color="#BB67DE"/><stop offset=".845" stop-color="#C65FDD"/><stop offset="1" stop-color="#CA5CDD"/></linearGradient><clipPath id="a"><path fill="#fff" d="M0 0h392.3v386.79H0z"/></clipPath></defs></svg>