<svg width="100%" height="100%" viewBox="0 0 300 400" fill="none" xmlns="http://www.w3.org/2000/svg">
<path d="M9 2V0.5H7.5V2H9ZM9 385L17.6603 370H0.339746L9 385ZM10.5 379.016V375.026H7.5V379.016H10.5ZM10.5 371.036V367.047H7.5V371.036H10.5ZM10.5 363.057V359.068H7.5V363.057H10.5ZM10.5 355.078V351.089H7.5V355.078H10.5ZM10.5 347.099V343.109H7.5V347.099H10.5ZM10.5 339.12V335.13H7.5V339.12H10.5ZM10.5 331.141V327.151H7.5V331.141H10.5ZM10.5 323.161V319.172H7.5V323.161H10.5ZM10.5 315.182V311.193H7.5V315.182H10.5ZM10.5 307.203V303.214H7.5V307.203H10.5ZM10.5 299.224V295.234H7.5V299.224H10.5ZM10.5 291.245V287.255H7.5V291.245H10.5ZM10.5 283.266V279.276H7.5V283.266H10.5ZM10.5 275.286V271.297H7.5V275.286H10.5ZM10.5 267.307V263.318H7.5V267.307H10.5ZM10.5 259.328V255.339H7.5V259.328H10.5ZM10.5 251.349V247.359H7.5V251.349H10.5ZM10.5 243.37V239.38H7.5V243.37H10.5ZM10.5 235.391V231.401H7.5V235.391H10.5ZM10.5 227.411V223.422H7.5V227.411H10.5ZM10.5 219.432V215.443H7.5V219.432H10.5ZM10.5 211.453V207.464H7.5V211.453H10.5ZM10.5 203.474V199.484H7.5V203.474H10.5ZM10.5 195.495V191.505H7.5V195.495H10.5ZM10.5 187.516V183.526H7.5V187.516H10.5ZM10.5 179.537V175.547H7.5V179.537H10.5ZM10.5 171.557V167.568H7.5V171.557H10.5ZM10.5 163.578V159.589H7.5V163.578H10.5ZM10.5 155.599V151.609H7.5V155.599H10.5ZM10.5 147.62V143.63H7.5V147.62H10.5ZM10.5 139.641V135.651H7.5V139.641H10.5ZM10.5 131.662V127.672H7.5V131.662H10.5ZM10.5 123.682V119.693H7.5V123.682H10.5ZM10.5 115.703V111.714H7.5V115.703H10.5ZM10.5 107.724V103.734H7.5V107.724H10.5ZM10.5 99.7449V95.7552H7.5V99.7449H10.5ZM10.5 91.7656V87.7761H7.5V91.7656H10.5ZM10.5 83.7865V79.7969H7.5V83.7865H10.5ZM10.5 75.8073V71.8177H7.5V75.8073H10.5ZM10.5 67.8281V63.8385H7.5V67.8281H10.5ZM10.5 59.8489V55.8593H7.5V59.8489H10.5ZM10.5 51.8697V47.8801H7.5V51.8697H10.5ZM10.5 43.8905V39.9009H7.5V43.8905H10.5ZM10.5 35.9114V31.9218H7.5V35.9114H10.5ZM10.5 27.9322V23.9426H7.5V27.9322H10.5ZM10.5 19.953V15.9634H7.5V19.953H10.5ZM10.5 11.9738V7.98419H7.5V11.9738H10.5ZM10.5 3.9946V2H7.5V3.9946H10.5ZM9 3.5H10.99V0.5H9V3.5ZM14.97 3.5H18.95V0.5H14.97V3.5ZM22.93 3.5H26.91V0.5H22.93V3.5ZM30.89 3.5H34.87V0.5H30.89V3.5ZM38.85 3.5H42.83V0.5H38.85V3.5ZM46.81 3.5H50.79V0.5H46.81V3.5ZM54.77 3.5H58.75V0.5H54.77V3.5ZM62.73 3.5H66.71V0.5H62.73V3.5ZM70.69 3.5H74.67V0.5H70.69V3.5ZM78.65 3.5H82.63V0.5H78.65V3.5ZM86.61 3.5H90.59V0.5H86.61V3.5ZM94.57 3.5H98.55V0.5H94.57V3.5ZM102.53 3.5H106.51V0.5H102.53V3.5ZM110.49 3.5H114.47V0.5H110.49V3.5ZM118.45 3.5H122.43V0.5H118.45V3.5ZM126.41 3.5H130.39V0.5H126.41V3.5ZM134.37 3.5H138.35V0.5H134.37V3.5ZM142.33 3.5H146.31V0.5H142.33V3.5ZM150.29 3.5H154.27V0.5H150.29V3.5ZM158.25 3.5H162.23V0.5H158.25V3.5ZM166.21 3.5H170.19V0.5H166.21V3.5ZM174.17 3.5H178.15V0.5H174.17V3.5ZM182.13 3.5H186.11V0.5H182.13V3.5ZM190.09 3.5H194.07V0.5H190.09V3.5ZM198.05 3.5H202.03V0.5H198.05V3.5ZM206.01 3.5H209.99V0.5H206.01V3.5ZM213.97 3.5H217.95V0.5H213.97V3.5ZM221.93 3.5H225.91V0.5H221.93V3.5ZM229.89 3.5H233.87V0.5H229.89V3.5ZM237.85 3.5H241.83V0.5H237.85V3.5ZM245.81 3.5H249.79V0.5H245.81V3.5ZM253.77 3.5H257.75V0.5H253.77V3.5ZM261.73 3.5H265.71V0.5H261.73V3.5ZM269.69 3.5H273.67V0.5H269.69V3.5ZM277.65 3.5H281.63V0.5H277.65V3.5ZM285.61 3.5H289.59V0.5H285.61V3.5ZM293.57 3.5H297.55V0.5H293.57V3.5ZM301.53 3.5H305.51V0.5H301.53V3.5ZM309.49 3.5H313.47V0.5H309.49V3.5ZM317.45 3.5H321.43V0.5H317.45V3.5ZM325.41 3.5H329.39V0.5H325.41V3.5ZM333.37 3.5H337.35V0.5H333.37V3.5ZM341.33 3.5H345.31V0.5H341.33V3.5ZM349.29 3.5H353.27V0.5H349.29V3.5ZM357.25 3.5H361.23V0.5H357.25V3.5ZM365.21 3.5H369.19V0.5H365.21V3.5ZM373.17 3.5H377.15V0.5H373.17V3.5ZM381.13 3.5H385.11V0.5H381.13V3.5ZM389.09 3.5H393.07V0.5H389.09V3.5ZM397.05 3.5H401.03V0.5H397.05V3.5ZM405.01 3.5H407V0.5H405.01V3.5Z" fill="black"/>
</svg>
