<svg width="100%" height="100%" viewBox="0 0 300 400" fill="none" xmlns="http://www.w3.org/2000/svg">
<path d="M394 295L402.66 280H385.34L394 295ZM394 2H395.5V0.5H394V2ZM0 3.5H2.0102V0.5H0V3.5ZM6.03061 3.5H10.051V0.5H6.03061V3.5ZM14.0714 3.5H18.0918V0.5H14.0714V3.5ZM22.1122 3.5H26.1327V0.5H22.1122V3.5ZM30.1531 3.5H34.1735V0.5H30.1531V3.5ZM38.1939 3.5H42.2143V0.5H38.1939V3.5ZM46.2347 3.5H50.2551V0.5H46.2347V3.5ZM54.2755 3.5H58.2959V0.5H54.2755V3.5ZM62.3163 3.5H66.3367V0.5H62.3163V3.5ZM70.3571 3.5H74.3776V0.5H70.3571V3.5ZM78.398 3.5H82.4184V0.5H78.398V3.5ZM86.4388 3.5H90.4592V0.5H86.4388V3.5ZM94.4796 3.5H98.5V0.5H94.4796V3.5ZM102.52 3.5H106.541V0.5H102.52V3.5ZM110.561 3.5H114.582V0.5H110.561V3.5ZM118.602 3.5H122.622V0.5H118.602V3.5ZM126.643 3.5H130.663V0.5H126.643V3.5ZM134.684 3.5H138.704V0.5H134.684V3.5ZM142.724 3.5H146.745V0.5H142.724V3.5ZM150.765 3.5H154.786V0.5H150.765V3.5ZM158.806 3.5H162.826V0.5H158.806V3.5ZM166.847 3.5H170.867V0.5H166.847V3.5ZM174.888 3.5H178.908V0.5H174.888V3.5ZM182.928 3.5H186.949V0.5H182.928V3.5ZM190.969 3.5H194.99V0.5H190.969V3.5ZM199.01 3.5H203.03V0.5H199.01V3.5ZM207.051 3.5H211.071V0.5H207.051V3.5ZM215.092 3.5H219.112V0.5H215.092V3.5ZM223.132 3.5H227.153V0.5H223.132V3.5ZM231.173 3.5H235.194V0.5H231.173V3.5ZM239.214 3.5H243.234V0.5H239.214V3.5ZM247.255 3.5H251.275V0.5H247.255V3.5ZM255.296 3.5H259.316V0.5H255.296V3.5ZM263.337 3.5H267.357V0.5H263.337V3.5ZM271.377 3.5H275.398V0.5H271.377V3.5ZM279.418 3.5H283.439V0.5H279.418V3.5ZM287.459 3.5H291.479V0.5H287.459V3.5ZM295.5 3.5H299.52V0.5H295.5V3.5ZM303.541 3.5H307.561V0.5H303.541V3.5ZM311.582 3.5H315.602V0.5H311.582V3.5ZM319.622 3.5H323.643V0.5H319.622V3.5ZM327.663 3.5H331.684V0.5H327.663V3.5ZM335.704 3.5H339.724V0.5H335.704V3.5ZM343.745 3.5H347.765V0.5H343.745V3.5ZM351.786 3.5H355.806V0.5H351.786V3.5ZM359.827 3.5H363.847V0.5H359.827V3.5ZM367.867 3.5H371.888V0.5H367.867V3.5ZM375.908 3.5H379.929V0.5H375.908V3.5ZM383.949 3.5H387.969V0.5H383.949V3.5ZM391.99 3.5H394V0.5H391.99V3.5ZM392.5 2V3.97973H395.5V2H392.5ZM392.5 7.93919V11.8986H395.5V7.93919H392.5ZM392.5 15.8581V19.8176H395.5V15.8581H392.5ZM392.5 23.777V27.7365H395.5V23.777H392.5ZM392.5 31.6959V35.6554H395.5V31.6959H392.5ZM392.5 39.6149V43.5743H395.5V39.6149H392.5ZM392.5 47.5338V51.4933H395.5V47.5338H392.5ZM392.5 55.4527V59.4122H395.5V55.4527H392.5ZM392.5 63.3716V67.3311H395.5V63.3716H392.5ZM392.5 71.2906V75.25H395.5V71.2906H392.5ZM392.5 79.2095V83.1689H395.5V79.2095H392.5ZM392.5 87.1284V91.0878H395.5V87.1284H392.5ZM392.5 95.0473V99.0068H395.5V95.0473H392.5ZM392.5 102.966V106.926H395.5V102.966H392.5ZM392.5 110.885V114.845H395.5V110.885H392.5ZM392.5 118.804V122.763H395.5V118.804H392.5ZM392.5 126.723V130.682H395.5V126.723H392.5ZM392.5 134.642V138.601H395.5V134.642H392.5ZM392.5 142.561V146.52H395.5V142.561H392.5ZM392.5 150.48V154.439H395.5V150.48H392.5ZM392.5 158.399V162.358H395.5V158.399H392.5ZM392.5 166.318V170.277H395.5V166.318H392.5ZM392.5 174.236V178.196H395.5V174.236H392.5ZM392.5 182.155V186.115H395.5V182.155H392.5ZM392.5 190.074V194.034H395.5V190.074H392.5ZM392.5 197.993V201.953H395.5V197.993H392.5ZM392.5 205.912V209.872H395.5V205.912H392.5ZM392.5 213.831V217.79H395.5V213.831H392.5ZM392.5 221.75V225.709H395.5V221.75H392.5ZM392.5 229.669V233.628H395.5V229.669H392.5ZM392.5 237.588V241.547H395.5V237.588H392.5ZM392.5 245.507V249.466H395.5V245.507H392.5ZM392.5 253.426V257.385H395.5V253.426H392.5ZM392.5 261.345V265.304H395.5V261.345H392.5ZM392.5 269.263V273.223H395.5V269.263H392.5ZM392.5 277.182V281.142H395.5V277.182H392.5ZM392.5 285.101V289.061H395.5V285.101H392.5Z" fill="black"/>
</svg>
