<svg width="51" height="51" viewBox="0 0 51 51" fill="none" xmlns="http://www.w3.org/2000/svg">
<rect width="51" height="51" rx="10" fill="#F7F8F8"/>
<path d="M35.3333 13H29.76C29.2 11.4533 27.7333 10.3333 26 10.3333C24.2667 10.3333 22.8 11.4533 22.24 13H16.6667C15.2 13 14 14.2 14 15.6667V34.3333C14 35.8 15.2 37 16.6667 37H35.3333C36.8 37 38 35.8 38 34.3333V15.6667C38 14.2 36.8 13 35.3333 13ZM26 12.6667C26.5467 12.6667 27 13.12 27 13.6667C27 14.2133 26.5467 14.6667 26 14.6667C25.4533 14.6667 25 14.2133 25 13.6667C25 13.12 25.4533 12.6667 26 12.6667ZM22.1333 31.6667H19.3333V28.8133L27.28 20.8667L30.1067 23.6933L22.1333 31.6667ZM32.4667 21.36L31.0533 22.7733L28.2267 19.9467L29.64 18.5333C29.9067 18.2667 30.32 18.2667 30.5867 18.5333L32.4667 20.4133C32.7333 20.68 32.7333 21.0933 32.4667 21.36Z" fill="#434141"/>
</svg>
